<svg width="18" height="18" viewBox="0 0 18 18" fill="none" xmlns="http://www.w3.org/2000/svg">
<path d="M9 4.125C9.69619 4.125 10.3639 4.40156 10.8562 4.89384C11.3484 5.38613 11.625 6.05381 11.625 6.75C11.625 7.44619 11.3484 8.11387 10.8562 8.60616C10.3639 9.09844 9.69619 9.375 9 9.375C8.30381 9.375 7.63613 9.09844 7.14384 8.60616C6.65156 8.11387 6.375 7.44619 6.375 6.75C6.375 6.05381 6.65156 5.38613 7.14384 4.89384C7.63613 4.40156 8.30381 4.125 9 4.125ZM3.75 6C4.17 6 4.56 6.1125 4.8975 6.315C4.785 7.3875 5.1 8.4525 5.745 9.285C5.37 10.005 4.62 10.5 3.75 10.5C3.15326 10.5 2.58097 10.2629 2.15901 9.84099C1.73705 9.41903 1.5 8.84674 1.5 8.25C1.5 7.65326 1.73705 7.08097 2.15901 6.65901C2.58097 6.23705 3.15326 6 3.75 6ZM14.25 6C14.8467 6 15.419 6.23705 15.841 6.65901C16.2629 7.08097 16.5 7.65326 16.5 8.25C16.5 8.84674 16.2629 9.41903 15.841 9.84099C15.419 10.2629 14.8467 10.5 14.25 10.5C13.38 10.5 12.63 10.005 12.255 9.285C12.9 8.4525 13.215 7.3875 13.1025 6.315C13.44 6.1125 13.83 6 14.25 6ZM4.125 13.6875C4.125 12.135 6.3075 10.875 9 10.875C11.6925 10.875 13.875 12.135 13.875 13.6875V15H4.125V13.6875ZM0 15V13.875C0 12.8325 1.4175 11.955 3.3375 11.7C2.895 12.21 2.625 12.915 2.625 13.6875V15H0ZM18 15H15.375V13.6875C15.375 12.915 15.105 12.21 14.6625 11.7C16.5825 11.955 18 12.8325 18 13.875V15Z" fill="#B0B3BF"/>
</svg>
