<svg width="18" height="18" viewBox="0 0 18 18" fill="none" xmlns="http://www.w3.org/2000/svg">
<path d="M9 3.375C5.25 3.375 2.0475 5.7075 0.75 9C2.0475 12.2925 5.25 14.625 9 14.625C9.27 14.625 9.54 14.625 9.81 14.5875C9.7725 14.3475 9.75 14.115 9.75 13.875C9.75 13.455 9.81 13.035 9.93 12.63C9.6225 12.705 9.315 12.75 9 12.75C8.00544 12.75 7.05161 12.3549 6.34835 11.6517C5.64509 10.9484 5.25 9.99456 5.25 9C5.25 8.00544 5.64509 7.05161 6.34835 6.34835C7.05161 5.64509 8.00544 5.25 9 5.25C9.99456 5.25 10.9484 5.64509 11.6517 6.34835C12.3549 7.05161 12.75 8.00544 12.75 9C12.75 9.2175 12.7275 9.4425 12.69 9.66C13.185 9.4725 13.7175 9.375 14.25 9.375C15.1275 9.375 15.9825 9.63 16.7175 10.125C16.92 9.75 17.1 9.375 17.25 9C15.9525 5.7075 12.75 3.375 9 3.375ZM9 6.75C8.40326 6.75 7.83097 6.98705 7.40901 7.40901C6.98705 7.83097 6.75 8.40326 6.75 9C6.75 9.59674 6.98705 10.169 7.40901 10.591C7.83097 11.0129 8.40326 11.25 9 11.25C9.59674 11.25 10.169 11.0129 10.591 10.591C11.0129 10.169 11.25 9.59674 11.25 9C11.25 8.40326 11.0129 7.83097 10.591 7.40901C10.169 6.98705 9.59674 6.75 9 6.75ZM13.5 10.875V13.125H11.25V14.625H13.5V16.875H15V14.625H17.25V13.125H15V10.875H13.5Z" fill="#474A57"/>
</svg>
