<svg width="18" height="18" viewBox="0 0 18 18" fill="none" xmlns="http://www.w3.org/2000/svg">
<path d="M4.5 1.5C5.09674 1.5 5.66903 1.73705 6.09099 2.15901C6.51295 2.58097 6.75 3.15326 6.75 3.75C6.75 4.71 6.1425 5.535 5.295 5.8575C5.3625 6.2025 5.5425 6.6225 6 7.2225C6.75 8.19 8.25 9.6225 9 10.6275C9.75 9.6225 11.25 8.19 12 7.2225C12.4575 6.6225 12.6375 6.2025 12.705 5.8575C11.8575 5.535 11.25 4.71 11.25 3.75C11.25 3.15326 11.4871 2.58097 11.909 2.15901C12.331 1.73705 12.9033 1.5 13.5 1.5C14.0967 1.5 14.669 1.73705 15.091 2.15901C15.5129 2.58097 15.75 3.15326 15.75 3.75C15.75 4.74 15.105 5.5875 14.2125 5.8875C14.1525 6.2775 13.98 6.75 13.5 7.3725C12.75 8.3775 11.25 9.81 10.5 10.785C10.0425 11.3775 9.8625 11.7975 9.795 12.1425C10.6425 12.465 11.25 13.29 11.25 14.25C11.25 14.8467 11.0129 15.419 10.591 15.841C10.169 16.2629 9.59674 16.5 9 16.5C8.40326 16.5 7.83097 16.2629 7.40901 15.841C6.98705 15.419 6.75 14.8467 6.75 14.25C6.75 13.29 7.3575 12.465 8.205 12.1425C8.1375 11.7975 7.9575 11.3775 7.5 10.785C6.75 9.81 5.25 8.3775 4.5 7.3725C4.02 6.75 3.8475 6.2775 3.7875 5.8875C2.895 5.5875 2.25 4.74 2.25 3.75C2.25 3.15326 2.48705 2.58097 2.90901 2.15901C3.33097 1.73705 3.90326 1.5 4.5 1.5ZM4.5 3C4.30109 3 4.11032 3.07902 3.96967 3.21967C3.82902 3.36032 3.75 3.55109 3.75 3.75C3.75 3.94891 3.82902 4.13968 3.96967 4.28033C4.11032 4.42098 4.30109 4.5 4.5 4.5C4.69891 4.5 4.88968 4.42098 5.03033 4.28033C5.17098 4.13968 5.25 3.94891 5.25 3.75C5.25 3.55109 5.17098 3.36032 5.03033 3.21967C4.88968 3.07902 4.69891 3 4.5 3ZM13.5 3C13.3011 3 13.1103 3.07902 12.9697 3.21967C12.829 3.36032 12.75 3.55109 12.75 3.75C12.75 3.94891 12.829 4.13968 12.9697 4.28033C13.1103 4.42098 13.3011 4.5 13.5 4.5C13.6989 4.5 13.8897 4.42098 14.0303 4.28033C14.171 4.13968 14.25 3.94891 14.25 3.75C14.25 3.55109 14.171 3.36032 14.0303 3.21967C13.8897 3.07902 13.6989 3 13.5 3ZM9 13.5C8.80109 13.5 8.61032 13.579 8.46967 13.7197C8.32902 13.8603 8.25 14.0511 8.25 14.25C8.25 14.4489 8.32902 14.6397 8.46967 14.7803C8.61032 14.921 8.80109 15 9 15C9.19891 15 9.38968 14.921 9.53033 14.7803C9.67098 14.6397 9.75 14.4489 9.75 14.25C9.75 14.0511 9.67098 13.8603 9.53033 13.7197C9.38968 13.579 9.19891 13.5 9 13.5Z" fill="#474A57"/>
</svg>
