<svg width="18" height="18" viewBox="0 0 18 18" fill="none" xmlns="http://www.w3.org/2000/svg">
<path d="M1.5 2.25H16.5C17.2875 2.25 18 2.9625 18 3.75V14.25C18 15.0375 17.2875 15.75 16.5 15.75H1.5C0.7125 15.75 0 15.0375 0 14.25V3.75C0 2.9625 0.7125 2.25 1.5 2.25ZM10.5 4.5V5.25H16.5V4.5H10.5ZM10.5 6V6.75H16.125H16.5V6H10.5ZM10.5 7.5V8.25H15.75V7.5H10.5ZM6 10.4325C4.5 10.4325 1.5 11.25 1.5 12.75V13.5H10.5V12.75C10.5 11.25 7.5 10.4325 6 10.4325ZM6 4.5C5.40326 4.5 4.83097 4.73705 4.40901 5.15901C3.98705 5.58097 3.75 6.15326 3.75 6.75C3.75 7.34674 3.98705 7.91903 4.40901 8.34099C4.83097 8.76295 5.40326 9 6 9C6.59674 9 7.16903 8.76295 7.59099 8.34099C8.01295 7.91903 8.25 7.34674 8.25 6.75C8.25 6.15326 8.01295 5.58097 7.59099 5.15901C7.16903 4.73705 6.59674 4.5 6 4.5Z" fill="white"/>
</svg>
