<svg width="18" height="18" viewBox="0 0 18 18" fill="none" xmlns="http://www.w3.org/2000/svg">
<path d="M12 6.75H16.125L12 2.625V6.75ZM5.25 1.5H12.75L17.25 6V13.5C17.25 13.8978 17.092 14.2794 16.8107 14.5607C16.5294 14.842 16.1478 15 15.75 15H5.25C4.4175 15 3.75 14.325 3.75 13.5V3C3.75 2.60218 3.90804 2.22064 4.18934 1.93934C4.47064 1.65804 4.85218 1.5 5.25 1.5ZM2.25 4.5V16.5H15.75V18H2.25C1.85218 18 1.47064 17.842 1.18934 17.5607C0.908035 17.2794 0.75 16.8978 0.75 16.5V4.5H2.25Z" fill="#B0B3BF"/>
</svg>
