<svg class="svg-icon" width="21" height="20" viewBox="0 0 21 20" fill="none" xmlns="http://www.w3.org/2000/svg">
  <path
    fill-rule="evenodd" clip-rule="evenodd" d="M15.0417 12.7274C15.0417 14.4882 13.2834 16.25 10.6667 16.25C8.04998 16.25 6.29169 14.4882 6.29169 12.7274C6.29169 10.901 7.47956 8.6265 8.87576 6.64644C9.50681 5.75149 10.1401 4.97193 10.6354 4.39605C11.1401 5.01693 11.795 5.86211 12.4475 6.81595C13.1278 7.81046 13.7895 8.89988 14.2771 9.96016C14.7736 11.0399 15.0417 11.9879 15.0417 12.7274ZM5.04169 12.7274C5.04169 9.32937 8.2487 5.23185 9.81967 3.42852C10.3293 2.84357 10.6667 2.5 10.6667 2.5C10.6667 2.5 10.99 2.85736 11.4815 3.45597C13.0404 5.35437 16.2917 9.6792 16.2917 12.7274C16.2917 15.3632 13.7733 17.5 10.6667 17.5C7.56009 17.5 5.04169 15.3632 5.04169 12.7274ZM7.85315 10.625H9.19788C8.94487 11.2025 8.79169 11.7501 8.79169 12.216C8.79169 12.9313 9.49146 13.75 10.6667 13.75V15C8.9408 15 7.54169 13.7535 7.54169 12.216C7.54169 11.7029 7.66106 11.1625 7.85315 10.625Z"
    fill="currentColor"
  />
</svg>
