<svg class="svg-icon" width="16" height="16" viewBox="0 0 16 16" fill="none" xmlns="http://www.w3.org/2000/svg">
  <path
    d="M10.1 10.85C10.2 10.95 10.3166 11 10.45 11C10.5833 11 10.7055 10.9444 10.8166 10.8333C10.9278 10.7222 10.9861 10.5944 10.9916 10.45C10.9972 10.3055 10.9444 10.1833 10.8333 10.0833L8.54998 7.79999V4.93333C8.54998 4.79999 8.50276 4.68611 8.40831 4.59166C8.31387 4.49722 8.19442 4.44999 8.04998 4.44999C7.90553 4.44999 7.78609 4.49722 7.69165 4.59166C7.5972 4.68611 7.54998 4.80555 7.54998 4.94999V7.99999C7.54998 8.06666 7.56109 8.12777 7.58331 8.18333C7.60554 8.23888 7.63887 8.29444 7.68331 8.34999L10.1 10.85ZM7.99998 14.6667C7.08887 14.6667 6.22776 14.4917 5.41665 14.1417C4.60554 13.7917 3.8972 13.3139 3.29165 12.7083C2.68609 12.1028 2.20831 11.3944 1.85831 10.5833C1.50831 9.77222 1.33331 8.91111 1.33331 7.99999C1.33331 7.08888 1.50831 6.22777 1.85831 5.41666C2.20831 4.60555 2.68609 3.89722 3.29165 3.29166C3.8972 2.68611 4.60554 2.20833 5.41665 1.85833C6.22776 1.50833 7.08887 1.33333 7.99998 1.33333C8.91109 1.33333 9.7722 1.50833 10.5833 1.85833C11.3944 2.20833 12.1028 2.68611 12.7083 3.29166C13.3139 3.89722 13.7916 4.60555 14.1416 5.41666C14.4916 6.22777 14.6666 7.08888 14.6666 7.99999C14.6666 8.91111 14.4916 9.77222 14.1416 10.5833C13.7916 11.3944 13.3139 12.1028 12.7083 12.7083C12.1028 13.3139 11.3944 13.7917 10.5833 14.1417C9.7722 14.4917 8.91109 14.6667 7.99998 14.6667ZM7.99998 13.6667C9.55553 13.6667 10.8889 13.1111 12 12C13.1111 10.8889 13.6666 9.55555 13.6666 7.99999C13.6666 6.44444 13.1111 5.11111 12 3.99999C10.8889 2.88888 9.55553 2.33333 7.99998 2.33333C6.44442 2.33333 5.11109 2.88888 3.99998 3.99999C2.88887 5.11111 2.33331 6.44444 2.33331 7.99999C2.33331 9.55555 2.88887 10.8889 3.99998 12C5.11109 13.1111 6.44442 13.6667 7.99998 13.6667Z"
    fill="currentColor"
  />
</svg>
