<svg class="svg-icon" width="27" height="27" viewBox="0 0 27 27" fill="none" xmlns="http://www.w3.org/2000/svg">
  <path
    fill-rule="evenodd" clip-rule="evenodd" d="M12.7083 3.125V1.25H13.9583V3.125H12.7083ZM17.622 13.6399C18.0664 14.1797 18.3333 14.8711 18.3333 15.6249C18.3333 17.3508 16.9342 18.7499 15.2083 18.7499L15.1854 18.7498H10.545V18.7498L10.5208 18.7499C7.93198 18.7499 5.83331 16.6512 5.83331 14.0624C5.83331 12.5251 6.57329 11.1607 7.71649 10.3059C7.71106 10.2046 7.70831 10.1026 7.70831 10C7.70831 6.8934 10.2267 4.375 13.3333 4.375C16.4399 4.375 18.9583 6.8934 18.9583 10C18.9583 11.3881 18.4555 12.6589 17.622 13.6399ZM16.651 12.8521C16.2194 12.6271 15.7287 12.4999 15.2083 12.4999C14.6799 12.4999 14.1821 12.6311 13.7457 12.8626C13.8849 13.2362 13.9609 13.6405 13.9609 14.0625C13.9609 14.1182 13.9596 14.1735 13.957 14.2285C14.2889 13.9309 14.7275 13.7499 15.2083 13.7499C16.2439 13.7499 17.0833 14.5894 17.0833 15.6249C17.0833 16.6605 16.2439 17.4999 15.2083 17.4999V17.4998H15.1906L15.1666 17.4995H10.5729C10.5556 17.4997 10.5382 17.4999 10.5208 17.4999C8.62234 17.4999 7.08331 15.9608 7.08331 14.0624C7.08331 12.1639 8.62234 10.6248 10.5208 10.6248C11.9977 10.6248 13.2571 11.5563 13.7436 12.8637C14.1074 12.6703 14.514 12.5467 14.9454 12.5108C14.305 10.6845 12.5659 9.37485 10.5208 9.37485C9.97851 9.37485 9.45771 9.46694 8.97321 9.63634C9.15804 7.39024 11.0395 5.625 13.3333 5.625C15.7496 5.625 17.7083 7.58375 17.7083 10C17.7083 11.0896 17.31 12.0862 16.651 12.8521ZM22.0833 9.375H20.2083V10.625H22.0833V9.375ZM18.9747 6.02123L20.5985 5.08373L21.2235 6.16627L19.5997 7.10377L18.9747 6.02123ZM17.1671 2.10983L16.2296 3.73363L17.3121 4.35863L18.2496 2.73483L17.1671 2.10983ZM9.35455 4.35863L8.41705 2.73483L9.49958 2.10983L10.4371 3.73363L9.35455 4.35863ZM5.44311 6.16627L7.06691 7.10377L7.69191 6.02123L6.06811 5.08373L5.44311 6.16627ZM4.58331 9.375H6.45831V10.625H4.58331V9.375ZM18.9748 13.9788L20.5986 14.9163L21.2236 13.8337L19.5998 12.8962L18.9748 13.9788Z"
    fill="currentColor"
  />
</svg>
