<svg class="svg-icon" width="20" height="20" viewBox="0 0 20 20" fill="none" xmlns="http://www.w3.org/2000/svg">
  <path
    fill-rule="evenodd" clip-rule="evenodd" d="M8.75009 6.87148L8.75009 6.8678L5.21212 6.86776L8.60584 5.64146L8.60547 5.64045C8.67047 5.62406 8.73772 5.61823 8.80466 5.62322C8.81349 5.62388 8.82231 5.62473 8.83113 5.62576L8.83126 5.62578C8.92317 5.6366 9.01153 5.66772 9.08995 5.71687L9.08996 5.71688C9.16838 5.76603 9.23491 5.83199 9.28473 5.91L9.28481 5.91013C9.33462 5.98814 9.36647 6.07624 9.37809 6.16807L9.37811 6.16825C9.3897 6.26012 9.38074 6.35341 9.35188 6.44139L9.35185 6.44146C9.32297 6.52947 9.2749 6.60995 9.21111 6.67708L9.21105 6.67714C9.14728 6.74425 9.06939 6.79635 8.98302 6.82967L8.98286 6.82973C8.97473 6.83286 8.96656 6.83582 8.95833 6.8386C8.89125 6.86129 8.82083 6.8724 8.75009 6.87148ZM2.5 6.51849V8.11783L8.73723 8.1179C8.97411 8.12056 9.20972 8.07819 9.43141 7.99267L9.43158 7.9926C9.60034 7.92748 9.75828 7.83841 9.90072 7.72854C9.97657 7.67003 10.048 7.60562 10.1144 7.53578L10.1144 7.53572C10.3054 7.33472 10.4493 7.09378 10.5358 6.83033L10.5358 6.83026C10.6223 6.56682 10.6491 6.28745 10.6144 6.01235L10.6144 6.01217C10.5797 5.73706 10.4843 5.47311 10.3351 5.2394L10.3351 5.23927C10.1859 5.00553 9.98657 4.80788 9.75163 4.66062L9.75162 4.66061C9.66997 4.60944 9.58473 4.56479 9.49669 4.52696C9.3314 4.45593 9.15625 4.40892 8.97658 4.38779L8.97645 4.38778C8.70877 4.35633 8.43754 4.38311 8.18132 4.46618L8.18113 4.46565L8.16195 4.47258L8.15969 4.47334L8.15943 4.47343L8.15945 4.47348L2.5 6.51849ZM2.5 11.8738V13.1578L10.7536 16.0941L10.7535 16.0944C11.0522 16.2136 11.3735 16.2654 11.6945 16.2461C11.818 16.2387 11.9402 16.2209 12.0599 16.193C12.2516 16.1483 12.4369 16.0778 12.6107 15.983C12.893 15.829 13.1379 15.6145 13.3279 15.355C13.5179 15.0955 13.6483 14.7972 13.7098 14.4815C13.7714 14.1657 13.7625 13.8403 13.684 13.5284C13.6054 13.2164 13.459 12.9257 13.2552 12.6768C13.1298 12.5237 12.9845 12.3887 12.8236 12.2752C12.7232 12.2044 12.6166 12.1419 12.505 12.0887C12.2152 11.9504 11.8985 11.8777 11.5774 11.8757V11.8738L2.5 11.8738ZM11.5689 13.1239L6.13444 13.1239L11.2401 14.9403L11.2397 14.9416C11.361 14.9864 11.4904 15.0055 11.6197 14.9978C11.7572 14.9895 11.8911 14.9511 12.012 14.8851C12.1329 14.8191 12.2378 14.7273 12.3191 14.6162C12.4005 14.505 12.4564 14.3773 12.4827 14.2421C12.5091 14.1069 12.5053 13.9675 12.4716 13.834C12.438 13.7004 12.3753 13.5759 12.288 13.4693C12.2008 13.3628 12.0911 13.2768 11.9668 13.2175C11.8427 13.1582 11.707 13.1271 11.5695 13.1262L11.5689 13.1262L11.5689 13.126L11.5689 13.1239ZM14.3863 7.03007L14.3857 7.03038L13.771 5.94198L13.7703 5.94072L13.7715 5.94002C14.1044 5.75219 14.4758 5.64317 14.8574 5.62136C14.9127 5.61819 14.968 5.61688 15.0233 5.61739C15.3494 5.62043 15.6723 5.68728 15.9737 5.81475C16.3261 5.96382 16.6396 6.19182 16.8901 6.48118C17.1405 6.77054 17.3212 7.11355 17.4183 7.48378C17.5153 7.85401 17.5261 8.24158 17.4498 8.61663C17.3735 8.99169 17.2122 9.34423 16.9782 9.64709C16.7782 9.90604 16.5296 10.1228 16.247 10.2855C16.1991 10.3131 16.1502 10.3391 16.1004 10.3635C15.7568 10.532 15.3791 10.6193 14.9965 10.6188V10.6186H2.5V9.36858H14.9983L14.9983 9.36723C15.1894 9.36749 15.378 9.32387 15.5497 9.23972C15.7213 9.15557 15.8713 9.03313 15.9882 8.88184C16.1051 8.73055 16.1857 8.55445 16.2238 8.3671C16.2619 8.17974 16.2565 7.98614 16.208 7.8012C16.1595 7.61625 16.0693 7.44491 15.9442 7.30036C15.819 7.15582 15.6624 7.04192 15.4864 6.96746C15.3103 6.89299 15.1196 6.85994 14.9287 6.87085C14.7381 6.88175 14.5526 6.93622 14.3863 7.03007Z"
    fill="currentColor"
  />
</svg>
